<svg preserveAspectRatio="none" overflow="visible" style="display: block;" width="24" height="24" viewBox="0 0 24 24" fill="none" xmlns="http://www.w3.org/2000/svg">
<g id="tiktok">
<path id="Vector" d="M6.33675 14.8444C6.45396 13.874 6.85196 13.3307 7.60196 12.7738C8.67514 12.0194 10.0156 12.4461 10.0156 12.4461V9.91477C10.3416 9.90637 10.6676 9.92572 10.9899 9.97245V13.2301C10.9899 13.2301 9.64976 12.8034 8.57666 13.5581C7.82704 14.1147 7.42821 14.6584 7.31141 15.6289C7.30775 16.1558 7.40664 16.8446 7.86206 17.4402C7.74941 17.3824 7.63466 17.3167 7.51774 17.2429C6.51459 16.5692 6.33187 15.5587 6.33675 14.8444ZM16.5249 5.23423C15.7867 4.42529 15.5075 3.60854 15.4066 3.03479H16.3353C16.3353 3.03479 16.1501 4.53918 17.4996 6.0186L17.5183 6.0385C17.1546 5.80972 16.821 5.53968 16.5249 5.23423ZM20.9985 7.52767V10.7198C20.9985 10.7198 19.8135 10.6734 18.9366 10.4503C17.712 10.1382 16.9249 9.65962 16.9249 9.65962C16.9249 9.65962 16.3812 9.31837 16.3373 9.2946V15.8863C16.3373 16.2533 16.2368 17.1699 15.9303 17.9344C15.5303 18.9345 14.913 19.5909 14.7994 19.7251C14.7994 19.7251 14.0486 20.6124 12.7239 21.21C11.5299 21.749 10.4816 21.7354 10.1682 21.749C10.1682 21.749 8.35609 21.8208 6.7254 20.761C6.37277 20.5274 6.04362 20.2629 5.74219 19.9708L5.75033 19.9766C7.38141 21.0364 9.19316 20.9646 9.19316 20.9646C9.50696 20.9509 10.5552 20.9646 11.7489 20.4256C13.0723 19.828 13.8243 18.9407 13.8243 18.9407C13.9367 18.8065 14.5569 18.1501 14.9553 17.1496C15.2609 16.3855 15.3622 15.4685 15.3622 15.1015V8.51062C15.4062 8.53477 15.9495 8.87602 15.9495 8.87602C15.9495 8.87602 16.737 9.35505 17.9615 9.66667C18.8388 9.8898 20.0235 9.93622 20.0235 9.93622V7.43485C20.4288 7.52572 20.7744 7.55032 20.9985 7.52767Z" fill="#EE1D52"/>
<path id="Vector_2" d="M20.0257 7.43485V9.9354C20.0257 9.9354 18.841 9.88897 17.9636 9.66592C16.7391 9.35385 15.9516 8.87527 15.9516 8.87527C15.9516 8.87527 15.4083 8.53402 15.3643 8.5098V15.1023C15.3643 15.4693 15.2638 16.3863 14.9574 17.1504C14.5573 18.1509 13.94 18.8073 13.8265 18.9415C13.8265 18.9415 13.0753 19.8288 11.751 20.4264C10.5574 20.9654 9.50909 20.9518 9.19529 20.9654C9.19529 20.9654 7.38355 21.0372 5.75246 19.9774L5.74432 19.9716C5.57212 19.8048 5.41002 19.6288 5.25883 19.4443C4.73833 18.8096 4.41928 18.0592 4.3391 17.845V17.8423C4.2101 17.4703 3.93907 16.5766 3.9761 15.7111C4.04162 14.1841 4.5788 13.2469 4.72083 13.012C5.09698 12.3718 5.58621 11.7988 6.16675 11.3189C6.67903 10.9047 7.2597 10.5751 7.88489 10.3438C8.56079 10.0721 9.28454 9.92647 10.0174 9.91477V12.4461C10.0174 12.4461 8.67682 12.021 7.60409 12.7738C6.8541 13.3307 6.45609 13.874 6.33889 14.8444C6.334 15.5587 6.51673 16.5692 7.51904 17.2432C7.63597 17.3173 7.75079 17.3831 7.86337 17.4406C8.03849 17.6682 8.25157 17.8666 8.49412 18.0276C9.47324 18.6474 10.2937 18.6907 11.3428 18.2881C12.0424 18.019 12.569 17.4125 12.8131 16.7404C12.9666 16.3208 12.9646 15.8983 12.9646 15.4615V3.03479H15.4063C15.5072 3.60854 15.7864 4.42529 16.5246 5.23423C16.8208 5.53968 17.1543 5.80972 17.518 6.0385C17.6254 6.14966 18.1748 6.69923 18.88 7.03662C19.2448 7.21101 19.6291 7.34463 20.0257 7.43485Z" fill="black"/>
<path id="Vector_3" d="M3.36621 17.0676V17.0696L3.4268 17.2338C3.41984 17.2146 3.39732 17.1565 3.36621 17.0676Z" fill="#69C9D0"/>
<path id="Vector_4" d="M7.8846 10.3437C7.25939 10.5751 6.67874 10.9047 6.16644 11.3188C5.58572 11.7999 5.09661 12.374 4.72094 13.0155C4.57891 13.2496 4.04173 14.1876 3.97621 15.7146C3.93917 16.5801 4.21021 17.4737 4.33921 17.8458V17.8485C4.4206 18.0607 4.73843 18.8111 5.25893 19.4477C5.41013 19.6322 5.57222 19.8083 5.74443 19.975C5.19268 19.6093 4.7006 19.1671 4.28427 18.6629C3.76825 18.0338 3.45001 17.2912 3.36699 17.0719C3.36689 17.0704 3.36689 17.0688 3.36699 17.0673V17.0645C3.23758 16.6928 2.96573 15.7988 3.00358 14.9322C3.0691 13.4052 3.60629 12.4679 3.74831 12.2331C4.12388 11.5915 4.613 11.0173 5.19382 10.5364C5.706 10.1221 6.28669 9.79252 6.91199 9.5613C7.30202 9.4062 7.70835 9.29182 8.12393 9.22005C8.75018 9.11527 9.38985 9.10612 10.0191 9.19312V9.9147C9.2856 9.92617 8.5611 10.0718 7.8846 10.3437Z" fill="#69C9D0"/>
<path id="Vector_5" d="M15.4078 3.03476H12.9661V15.4619C12.9661 15.8987 12.9661 16.32 12.8147 16.7408C12.5681 17.4125 12.0435 18.019 11.3443 18.2881C10.2949 18.6922 9.47443 18.6474 8.49568 18.0276C8.25268 17.8673 8.03901 17.6696 7.86328 17.4425C8.69713 17.8688 9.44346 17.8614 10.3681 17.5057C11.0668 17.2366 11.5922 16.63 11.838 15.958C11.9918 15.5383 11.9898 15.1159 11.9898 14.6794V2.25H15.3614C15.3614 2.25 15.3236 2.55891 15.4078 3.03476ZM20.0251 6.74328V7.43483C19.6294 7.34447 19.2457 7.21085 18.8816 7.0366C18.1764 6.69921 17.6269 6.14964 17.5195 6.03848C17.6442 6.11693 17.7736 6.1883 17.9069 6.25222C18.7644 6.66254 19.6088 6.78502 20.0251 6.74328Z" fill="#69C9D0"/>
</g>
</svg>
